<svg xmlns="http://www.w3.org/2000/svg" viewBox="0 0 28 27.991"><title>Asset 37</title><g id="Layer_2" data-name="Layer 2"><g id="Layer_1-2" data-name="Layer 1"><path d="M27.454,6.139l-5.6-5.6a1.893,1.893,0,0,0-2.65,0L2.412,17.336a1.778,1.778,0,0,0-.485.877L.061,25.677a1.838,1.838,0,0,0,.485,1.773,1.879,1.879,0,0,0,1.325.541,1.839,1.839,0,0,0,.448-.056l7.464-1.866a1.938,1.938,0,0,0,.877-.485L27.454,8.789A1.881,1.881,0,0,0,27.454,6.139ZM8.383,22.579l-3.956.989.989-3.956L20.531,4.5,23.5,7.464Z"/></g></g></svg>